<svg width="44" height="44" viewBox="0 0 44 44" fill="none" xmlns="http://www.w3.org/2000/svg">
<circle cx="22" cy="22" r="22" transform="rotate(90 22 22)" fill="#F5EAE2"/>
<mask id="mask0_1_757" style="mask-type:alpha" maskUnits="userSpaceOnUse" x="3" y="3" width="38" height="38">
<rect x="40.8563" y="3.14221" width="37.4576" height="37.4576" transform="rotate(90 40.8563 3.14221)" fill="#D9D9D9"/>
</mask>
<g mask="url(#mask0_1_757)">
<path d="M16.44 21.8709L22.1277 27.5585L27.8153 21.8709L26.1856 20.2412L23.2982 23.1286L23.2982 16.0182L20.9571 16.0182L20.9571 23.1286L18.0697 20.2412L16.44 21.8709ZM7.30071 21.8735C7.30071 19.8228 7.68986 17.8952 8.46814 16.0908C9.24643 14.2864 10.3027 12.7168 11.6368 11.382C12.971 10.0472 14.5399 8.99051 16.3436 8.21188C18.1472 7.43326 20.0743 7.04394 22.125 7.04394C24.1757 7.04394 26.1033 7.43309 27.9077 8.21137C29.7122 8.98966 31.2818 10.0459 32.6165 11.3801C33.9513 12.7142 35.008 14.2832 35.7867 16.0868C36.5653 17.8904 36.9546 19.8176 36.9546 21.8683C36.9546 23.919 36.5654 25.8465 35.7872 27.6509C35.0089 29.4554 33.9526 31.025 32.6185 32.3598C31.2843 33.6946 29.7154 34.7513 27.9117 35.5299C26.1081 36.3085 24.181 36.6978 22.1303 36.6978C20.0796 36.6978 18.152 36.3087 16.3476 35.5304C14.5431 34.7521 12.9735 33.6959 11.6388 32.3617C10.304 31.0275 9.24727 29.4586 8.46865 27.655C7.69002 25.8514 7.30071 23.9242 7.30071 21.8735Z" fill="#002863"/>
</g>
</svg>
