<svg width="56" height="56" viewBox="0 0 56 56" fill="none" xmlns="http://www.w3.org/2000/svg">
<circle cx="28" cy="28" r="28" fill="#F5EAE2"/>
<mask id="mask0_1_61" style="mask-type:alpha" maskUnits="userSpaceOnUse" x="4" y="4" width="48" height="48">
<rect x="4" y="4" width="47.6733" height="47.6733" fill="#D9D9D9"/>
</mask>
<g mask="url(#mask0_1_61)">
<path d="M27.8366 35.0754L35.0754 27.8366L27.8366 20.5978L25.7624 22.672L29.4373 26.3469H20.3877V29.3263H29.4373L25.7624 33.0012L27.8366 35.0754ZM27.8399 46.7072C25.2299 46.7072 22.7767 46.212 20.4801 45.2214C18.1836 44.2309 16.1859 42.8866 14.4871 41.1886C12.7883 39.4905 11.4434 37.4937 10.4524 35.1982C9.46143 32.9026 8.96594 30.4499 8.96594 27.8399C8.96594 25.2299 9.46122 22.7767 10.4518 20.4801C11.4423 18.1836 12.7866 16.1859 14.4846 14.4871C16.1827 12.7883 18.1795 11.4434 20.475 10.4524C22.7705 9.46143 25.2233 8.96594 27.8333 8.96594C30.4432 8.96594 32.8965 9.46122 35.193 10.4518C37.4896 11.4423 39.4873 12.7866 41.1861 14.4846C42.8849 16.1827 44.2298 18.1795 45.2208 20.475C46.2118 22.7705 46.7072 25.2233 46.7072 27.8333C46.7072 30.4432 46.212 32.8965 45.2214 35.193C44.2309 37.4896 42.8866 39.4873 41.1886 41.1861C39.4905 42.8849 37.4937 44.2298 35.1982 45.2208C32.9026 46.2118 30.4499 46.7072 27.8399 46.7072Z" fill="#002863"/>
</g>
</svg>
