<svg width="61" height="61" viewBox="0 0 61 61" fill="none" xmlns="http://www.w3.org/2000/svg">
<mask id="mask0_1_56" style="mask-type:alpha" maskUnits="userSpaceOnUse" x="0" y="0" width="61" height="61">
<rect x="0.661743" y="0.37439" width="59.6744" height="59.6744" fill="#D9D9D9"/>
</mask>
<g mask="url(#mask0_1_56)">
<path d="M24.2826 41.4003L41.6876 30.2114L24.2826 19.0224V41.4003ZM30.4987 55.0757C27.0591 55.0757 23.8267 54.423 20.8016 53.1176C17.7764 51.8122 15.1449 50.0407 12.9071 47.8029C10.6694 45.5651 8.89778 42.9336 7.5924 39.9084C6.28703 36.8833 5.63434 33.6509 5.63434 30.2114C5.63434 26.7718 6.28703 23.5394 7.5924 20.5143C8.89778 17.4891 10.6694 14.8576 12.9071 12.6199C15.1449 10.3821 17.7764 8.61049 20.8016 7.30511C23.8267 5.99973 27.0591 5.34705 30.4987 5.34705C33.9382 5.34705 37.1706 5.99973 40.1957 7.30511C43.2209 8.61049 45.8524 10.3821 48.0902 12.6199C50.3279 14.8576 52.0995 17.4891 53.4049 20.5143C54.7103 23.5394 55.363 26.7718 55.363 30.2114C55.363 33.6509 54.7103 36.8833 53.4049 39.9084C52.0995 42.9336 50.3279 45.5651 48.0902 47.8029C45.8524 50.0407 43.2209 51.8122 40.1957 53.1176C37.1706 54.423 33.9382 55.0757 30.4987 55.0757Z" fill="white"/>
<path d="M24.1337 41.7485V18.6744L42.036 30.2115L24.1337 41.7485Z" fill="#FF3F4E"/>
</g>
</svg>
