<svg width="46" height="46" viewBox="0 0 46 46" fill="none" xmlns="http://www.w3.org/2000/svg">
<mask id="mask0_1_179" style="mask-type:alpha" maskUnits="userSpaceOnUse" x="0" y="0" width="46" height="46">
<rect width="45.9356" height="45.9356" fill="#D9D9D9"/>
</mask>
<g mask="url(#mask0_1_179)">
<path d="M18.1828 31.5807L31.5807 22.9678L18.1828 14.3548L18.1828 31.5807ZM22.9677 42.1076C20.32 42.1076 17.8319 41.6052 15.5032 40.6003C13.1745 39.5955 11.1489 38.2318 9.42628 36.5092C7.7037 34.7866 6.33999 32.761 5.33514 30.4323C4.3303 28.1036 3.82788 25.6154 3.82788 22.9678C3.82788 20.3201 4.3303 17.8319 5.33514 15.5032C6.33999 13.1745 7.7037 11.1489 9.42628 9.42632C11.1489 7.70373 13.1745 6.34002 15.5032 5.33517C17.8319 4.33033 20.32 3.82791 22.9677 3.82791C25.6154 3.82791 28.1036 4.33033 30.4323 5.33517C32.7609 6.34002 34.7866 7.70373 36.5092 9.42632C38.2318 11.1489 39.5955 13.1745 40.6003 15.5032C41.6051 17.8319 42.1076 20.3201 42.1076 22.9678C42.1076 25.6154 41.6051 28.1036 40.6003 30.4323C39.5955 32.761 38.2318 34.7866 36.5092 36.5092C34.7866 38.2318 32.7609 39.5955 30.4323 40.6003C28.1036 41.6052 25.6154 42.1076 22.9677 42.1076Z" fill="white"/>
</g>
</svg>
